<?xml version="1.0" encoding="UTF-8" standalone="no"?>
<!DOCTYPE svg PUBLIC "-//W3C//DTD SVG 1.1//EN" "http://www.w3.org/Graphics/SVG/1.1/DTD/svg11.dtd">

<svg xmlns="http://www.w3.org/2000/svg"
     width="456" height="456"
     viewBox="0 0 456 456">
  <path id=".SG"
        fill="white" stroke="white" stroke-width="1"
        d="M 130.95,261.00
           C 130.95,257.96 132.01,255.37 134.12,253.22
             136.25,251.07 138.81,250.00 141.81,250.00
             144.82,250.00 147.38,251.07 149.50,253.22
             151.62,255.37 152.69,257.96 152.69,261.00
             152.69,264.04 151.62,266.64 149.50,268.78
             147.38,270.93 144.82,272.00 141.81,272.00
             138.81,272.00 136.25,270.93 134.12,268.78
             132.01,266.64 130.95,264.04 130.95,261.00 Z
           M 232.27,191.00
           C 226.97,187.00 221.59,185.00 216.12,185.00
             205.14,185.00 199.66,189.12 199.66,197.36
             199.66,200.85 202.57,205.02 208.41,209.86
             208.41,209.86 218.73,218.56 218.73,218.56
             221.92,221.26 224.13,223.23 225.36,224.47
             226.59,225.71 227.88,227.43 229.25,229.64
             230.62,231.84 231.65,234.06 232.33,236.31
             233.02,238.56 233.36,240.86 233.36,243.19
             233.36,252.23 229.93,259.29 223.06,264.38
             216.21,269.46 207.31,272.00 196.38,272.00
             187.39,272.00 178.91,270.00 170.94,266.00
             170.94,266.00 176.69,248.00 176.69,248.00
             182.79,253.34 189.88,256.00 197.94,256.00
             202.81,256.00 206.85,254.97 210.06,252.91
             213.28,250.84 214.89,247.91 214.89,244.11
             214.89,240.35 211.97,236.20 206.14,231.67
             206.14,231.67 195.41,223.19 195.41,223.19
             192.12,220.54 189.90,218.62 188.73,217.44
             187.58,216.25 186.36,214.59 185.08,212.47
             183.80,210.34 182.85,208.16 182.22,205.92
             181.58,203.68 181.27,201.38 181.27,199.00
             181.27,189.78 184.32,182.48 190.42,177.09
             196.54,171.70 204.54,169.00 214.42,169.00
             217.70,169.00 221.89,169.41 227.00,170.22
             232.10,171.03 235.68,171.96 237.73,173.00
             237.73,173.00 232.27,191.00 232.27,191.00 Z
           M 320.31,261.20
           C 310.01,268.40 297.41,272.00 282.52,272.00
             271.02,272.00 261.69,268.34 254.52,261.03
             247.34,253.71 243.75,244.42 243.75,233.17
             243.75,213.46 249.20,197.84 260.11,186.31
             271.02,174.77 285.89,169.00 304.72,169.00
             314.93,169.00 322.52,171.28 327.48,175.84
             327.48,175.84 322.16,191.08 322.16,191.08
             315.46,187.03 308.78,185.00 302.12,185.00
             290.09,185.00 280.43,189.33 273.14,197.98
             265.85,206.63 262.20,217.45 262.20,230.45
             262.20,238.51 264.46,244.78 268.97,249.27
             273.48,253.76 279.65,256.00 287.48,256.00
             294.00,256.00 299.70,254.20 304.58,250.59
             304.58,250.59 308.20,231.00 308.20,231.00
             308.20,231.00 294.33,231.00 294.33,231.00
             294.33,231.00 297.06,216.00 297.06,216.00
             297.06,216.00 328.58,216.00 328.58,216.00
             328.58,216.00 320.31,261.20 320.31,261.20 Z" />
</svg>
