<svg version="1.1" id="Layer_1" xmlns="http://www.w3.org/2000/svg" xmlns:xlink="http://www.w3.org/1999/xlink" x="0px" y="0px"
	 width="100%" viewBox="0 0 512 512" enable-background="new 0 0 512 512" xml:space="preserve">
<path fill="#000000" opacity="1.000000" stroke="none" 
	d="
M913.404663,558.335327 
	C911.140991,582.020447 906.863159,604.898560 900.752930,627.391602 
	C885.134705,684.885498 857.889160,736.389587 819.012878,781.454468 
	C766.718933,842.072998 702.488892,884.275696 624.726807,905.136841 
	C592.934814,913.665588 560.674011,918.672668 527.801392,920.480835 
	C489.078369,922.610718 451.123016,918.164795 413.430969,909.598511 
	C366.903564,899.024292 323.903412,880.298706 284.332611,853.913940 
	C242.168655,825.799988 206.478943,790.816101 177.696259,749.045227 
	C144.405869,700.732483 123.042122,647.476440 112.988190,589.687622 
	C106.995132,555.240234 104.822502,520.531006 107.909508,485.700653 
	C113.233315,425.632477 130.195221,369.040466 161.703842,317.387421 
	C201.370300,252.360931 254.668671,201.676132 322.501282,166.393417 
	C353.554047,150.241531 385.794250,137.584183 419.813812,129.418137 
	C455.042267,120.961914 490.845581,118.286438 526.905884,119.889000 
	C600.699402,123.168465 668.712158,145.191681 731.047302,184.674667 
	C760.175964,203.124725 786.379456,225.169250 810.012695,250.315109 
	C849.557007,292.390472 878.511597,340.698517 895.888000,395.798767 
	C904.864136,424.261719 911.499268,453.318604 913.972229,483.089508 
	C916.040039,507.982208 916.621765,532.973389 913.404663,558.335327 
M279.502930,647.043823 
	C297.962219,679.711548 322.056183,707.532837 352.371521,729.608948 
	C386.705811,754.611694 425.069824,770.445496 466.996674,777.520386 
	C490.636169,781.509399 514.433777,781.730774 538.187622,779.438293 
	C561.806396,777.158936 584.646301,771.196411 606.821106,762.679565 
	C651.376831,745.566772 688.827332,718.675354 718.536011,681.279175 
	C741.753845,652.053345 757.728821,619.203613 767.188110,583.060486 
	C777.530396,543.543457 779.121582,503.810211 769.991760,464.003723 
	C753.244080,390.983734 711.821716,335.451233 648.065308,296.827698 
	C594.265991,264.236115 535.603821,253.061584 473.378326,261.223907 
	C417.950439,268.494568 370.123688,292.093597 329.435730,330.251862 
	C300.973480,356.944489 278.951599,388.222198 263.982208,424.293121 
	C248.012466,462.774597 243.440765,502.921448 247.195618,544.212219 
	C250.502899,580.581238 261.990295,614.376038 279.502930,647.043823 
M211.690674,536.377502 
	C210.064560,496.897247 215.884201,458.473999 228.526855,420.925842 
	C216.870377,414.340302 204.671097,409.794708 193.001892,404.143646 
	C185.317902,400.422516 185.211349,400.489838 182.514832,408.764832 
	C169.699326,448.092621 163.766556,488.351349 166.147491,529.745300 
	C166.517258,536.173889 166.883163,536.742126 173.503708,536.572815 
	C180.829422,536.385559 188.157562,536.181946 195.473923,535.786621 
	C199.349762,535.577209 200.984573,537.323853 201.100906,540.995911 
	C201.201126,544.158875 201.118271,547.359802 201.597382,550.469910 
	C202.118057,553.849731 200.745560,555.061462 197.633987,555.202759 
	C182.496841,555.890381 167.357498,556.543823 152.227829,557.371887 
	C148.221176,557.591125 147.046127,555.677185 146.729858,552.110657 
	C144.652252,528.680786 144.031937,505.282501 146.561325,481.817474 
	C150.095963,449.026825 157.178818,417.124573 169.975906,386.675934 
	C176.227753,371.800720 173.679901,373.699707 187.574341,379.934387 
	C201.856674,386.343109 215.951096,393.169708 230.153107,399.758820 
	C236.142670,402.537659 236.687424,402.319214 239.669373,396.414948 
	C240.388123,394.991821 241.508621,393.605194 240.890778,391.631409 
	C239.495987,390.888214 238.034912,390.103455 236.568298,389.329193 
	C219.920547,380.540070 203.300354,371.697937 186.599106,363.011658 
	C183.340881,361.317078 182.048706,359.644348 184.184418,356.079681 
	C186.748825,351.799408 188.697205,347.151215 191.244431,342.859436 
	C212.336487,307.321716 238.449097,276.091614 269.896576,249.123077 
	C303.308228,220.470108 340.404816,198.413162 381.822754,183.691254 
	C398.338806,177.820633 394.305511,176.418823 399.817871,193.755310 
	C400.751984,196.693222 399.582825,198.057281 396.898865,198.919571 
	C373.297180,206.502350 351.288971,217.481323 330.048462,230.151306 
	C291.457031,253.171143 259.201721,283.119080 232.238968,318.941925 
	C229.833054,322.138428 230.286041,323.975616 233.644012,326.036469 
	C241.024170,330.565918 248.221100,335.395386 255.459167,340.153564 
	C256.785706,341.025604 258.580505,341.559174 258.705322,343.527649 
	C256.177460,347.322235 253.591888,350.988434 251.244308,354.801147 
	C249.618927,357.440918 248.022034,358.085236 245.173767,356.313873 
	C238.387619,352.093353 231.396774,348.203583 224.534546,344.103333 
	C216.293381,339.179138 216.419739,339.203552 211.655609,347.752594 
	C209.824631,351.038177 210.007645,353.200928 213.496765,355.058014 
	C224.820587,361.085052 236.100372,367.196045 247.343964,373.371490 
	C249.869797,374.758759 251.361404,374.482300 253.022873,371.923187 
	C258.283142,363.820984 263.682037,355.800262 269.276123,347.924774 
	C293.971710,313.157684 325.039642,285.364136 361.884399,264.018982 
	C378.639465,254.312317 396.145264,246.183365 414.679901,240.415787 
	C417.335724,239.589340 419.122864,238.444214 418.554840,235.153549 
	C414.709717,212.878815 411.061218,190.569458 407.094238,168.316727 
	C405.504852,159.401062 405.166779,159.320740 396.652222,162.181335 
	C344.583405,179.674713 297.089294,205.280289 256.030640,242.113571 
	C223.134842,271.624054 195.445648,305.467773 174.324921,344.294952 
	C148.898163,391.038177 134.816452,441.135956 131.975113,494.414490 
	C129.959045,532.218201 132.527527,569.490601 141.337860,606.395630 
	C150.496658,644.760193 164.248322,681.286316 184.665436,715.005676 
	C216.120193,766.953918 258.136627,808.575989 309.937500,840.347046 
	C337.796112,857.433533 367.542053,870.248718 398.567719,880.238220 
	C405.431793,882.448303 405.511108,882.278442 406.855011,875.204529 
	C411.014954,853.307251 415.153137,831.405884 419.305176,809.507202 
	C420.543701,802.974792 420.319244,802.449280 413.728912,800.195984 
	C391.581757,792.623779 370.326721,783.073425 350.316406,770.939575 
	C316.850922,750.646545 290.273895,723.084656 267.616943,691.501343 
	C262.979523,685.036804 258.548981,678.423889 253.823181,671.590393 
	C242.855499,676.910583 232.451096,682.805664 222.242004,689.032227 
	C211.619705,695.510742 210.457001,693.217163 219.263779,705.700806 
	C219.426102,705.930908 219.840027,705.983582 220.349319,706.216248 
	C226.921707,703.225769 232.590576,698.501404 238.857056,694.762329 
	C250.535370,687.794373 250.392227,687.786987 257.817444,699.395447 
	C259.704712,702.346008 259.456543,703.920105 256.535889,705.816101 
	C249.412354,710.440491 242.541733,715.454590 235.417068,720.077209 
	C232.206436,722.160339 232.300323,724.016846 234.323212,726.948181 
	C242.014954,738.093872 250.726196,748.408325 260.074463,758.139648 
	C297.376099,796.969727 342.056610,824.258911 392.631012,842.194275 
	C401.217865,845.239380 401.385132,845.206299 398.456512,853.635437 
	C395.210358,862.978699 397.706207,863.798889 385.834106,859.848877 
	C356.940582,850.235352 329.750366,837.088623 304.115753,820.540283 
	C254.208008,788.322571 216.539001,745.112732 188.363724,693.219971 
	C185.101318,687.211304 185.237625,687.089966 191.270065,683.698181 
	C207.243118,674.717102 223.168716,665.647644 239.263306,656.889160 
	C243.745941,654.449829 244.493820,651.825012 241.640839,647.844849 
	C240.887329,646.793579 240.682587,645.300720 238.926086,644.742798 
	C238.222595,645.034180 237.305344,645.391418 236.406418,645.789978 
	C219.507751,653.282898 203.067886,661.779968 185.895203,668.682251 
	C178.287018,671.740356 178.415405,671.932922 175.202560,664.218994 
	C171.039200,654.222839 167.163498,644.125061 163.678375,633.867798 
	C157.665161,616.169983 153.463242,598.023438 149.877151,579.713562 
	C149.253418,576.528931 150.131332,575.073303 153.756516,574.452637 
	C168.357178,571.952942 183.161728,571.163574 197.777878,568.862854 
	C200.160004,568.487976 201.800430,569.014282 202.411957,571.947876 
	C205.807861,588.238831 209.627045,604.428284 215.432190,620.070984 
	C216.208466,622.162720 216.393448,624.042297 213.993530,625.129333 
	C209.338928,627.237610 204.651672,629.273804 200.296295,631.199158 
	C198.159332,629.513489 197.872818,627.608459 197.166504,625.955017 
	C192.770004,615.662903 189.974762,604.839233 186.793304,594.150269 
	C185.863297,591.025635 184.261597,589.689209 181.024551,590.236694 
	C178.291702,590.698914 175.459564,590.742676 172.567596,592.471863 
	C176.600067,609.246582 181.214554,625.689880 187.982941,641.488037 
	C189.365845,644.715881 191.536514,644.297607 194.113480,643.371155 
	C205.110992,639.417480 215.518982,634.141724 226.069824,629.187927 
	C232.198105,626.310425 232.196243,626.268127 229.859207,619.965759 
	C219.959702,593.269531 214.038406,565.701599 211.690674,536.377502 
M685.909241,816.373413 
	C698.660278,809.112610 710.973083,801.239441 722.666870,792.305786 
	C756.014893,766.828979 783.137390,735.719543 806.522949,701.114746 
	C808.694214,697.901794 808.488892,695.941284 804.940430,694.054504 
	C793.615356,688.032410 782.319275,681.948059 771.158813,675.628479 
	C767.445190,673.525696 765.631958,674.195862 763.268005,677.758789 
	C748.293945,700.328125 731.217712,721.217651 711.152039,739.457458 
	C679.207153,768.495544 642.399414,789.080933 600.973877,801.271118 
	C596.815430,802.494934 595.705505,804.696594 596.423462,808.559021 
	C600.738098,831.771301 605.066284,854.981140 609.297791,878.208557 
	C609.995117,882.036194 611.493164,882.979797 615.450500,881.889832 
	C671.283508,866.512207 721.115540,840.246033 764.671021,801.800781 
	C814.872131,757.489563 849.786743,703.238281 871.694458,640.356812 
	C882.262939,610.022217 887.719727,578.598022 889.858398,546.562317 
	C891.851257,516.710999 890.990295,487.005066 885.996582,457.468475 
	C880.725891,426.293579 871.894836,396.226227 858.899963,367.333405 
	C840.422119,326.249573 814.870300,290.072540 783.080261,258.411896 
	C754.938538,230.384735 723.117920,207.263779 687.557739,189.190842 
	C664.748413,177.598389 641.309692,167.866974 616.881775,160.423325 
	C610.940247,158.612823 610.434753,158.832352 609.300598,165.097992 
	C605.244507,187.506424 601.409607,209.954834 597.419800,232.375412 
	C596.717651,236.321320 598.368591,237.852753 602.070801,239.006958 
	C655.554260,255.680969 700.832214,284.970367 737.370361,327.561554 
	C743.633728,334.862518 749.783936,342.260620 756.145813,349.802734 
	C766.951172,343.118866 777.414673,336.652130 787.869446,330.171417 
	C789.001526,329.469635 790.056030,328.641815 791.194214,327.951019 
	C794.079224,326.199921 793.182129,324.090332 791.687805,322.064972 
	C787.138062,315.898773 782.780701,309.565521 777.881531,303.686340 
	C737.377319,255.079300 686.587463,221.537659 627.012756,200.844894 
	C614.859192,196.623459 615.050537,199.426788 618.670349,185.563385 
	C620.495483,178.573517 620.867615,178.460800 627.942139,180.589844 
	C660.731201,190.457489 691.373535,205.060089 719.835388,223.912430 
	C770.491821,257.465820 809.002441,302.100494 837.473511,355.582764 
	C841.033997,362.271057 840.992676,362.408112 834.279175,365.928436 
	C818.053284,374.436768 801.831665,382.956909 785.482605,391.223785 
	C781.944580,393.012787 781.509155,394.664307 783.130615,398.141083 
	C795.809448,425.327759 804.514771,453.623627 807.645264,483.621582 
	C810.690247,512.799866 810.092896,541.779480 804.632507,570.596436 
	C801.249634,588.449707 796.540527,605.965393 789.661560,622.833801 
	C788.705017,625.179504 788.032654,627.179077 791.132935,628.529541 
	C803.041138,633.716492 814.835632,639.159241 827.024780,643.694946 
	C830.808472,645.102966 832.624634,643.726440 833.749207,640.321655 
	C836.724792,631.312378 840.067383,622.408752 842.657898,613.290955 
	C849.457886,589.357056 853.162415,564.853210 854.503662,540.049805 
	C855.159668,527.918945 854.607605,515.724243 854.667236,503.558746 
	C854.686829,499.571289 852.907410,497.824310 848.876099,497.969360 
	C843.882385,498.148987 838.877869,498.001953 833.879150,498.076569 
	C821.644531,498.259186 821.644836,498.277802 820.115234,486.342041 
	C819.355408,480.413025 819.986389,479.390778 825.795105,479.104004 
	C839.766479,478.414276 853.780884,478.942139 867.736572,477.732208 
	C871.632019,477.394470 872.903931,479.365479 873.321167,482.987122 
	C876.986267,514.801880 875.396545,546.521973 870.978027,578.081970 
	C866.614868,609.246765 857.365112,639.084412 844.539429,667.838745 
	C842.759460,671.829285 840.947205,672.046875 837.353271,670.452332 
	C820.760193,663.090088 804.065613,655.956665 787.421631,648.708801 
	C780.358948,645.633240 778.789307,646.346436 776.255371,653.652649 
	C775.630981,655.453003 776.059753,656.513062 777.636047,657.321106 
	C779.265686,658.156372 780.890564,659.000793 782.516296,659.843689 
	C798.930420,668.353455 815.325867,676.899780 831.772522,685.346069 
	C835.455627,687.237549 836.796631,688.873291 834.354736,693.329224 
	C817.572510,723.953003 796.709473,751.680054 772.177917,776.233032 
	C732.426453,816.019104 685.417297,844.513672 631.247803,860.495911 
	C618.499390,864.257202 620.781311,865.053040 617.300964,852.552429 
	C617.077820,851.750854 616.967590,850.903259 616.641968,850.147278 
	C615.136536,846.652710 616.505249,845.212708 619.994141,844.193848 
	C642.789124,837.537170 664.424316,828.072144 685.909241,816.373413 
M481.888855,145.409485 
	C479.743134,145.684036 477.604889,146.072922 475.450439,146.214676 
	C460.984222,147.166473 446.753448,149.661255 432.537018,152.386047 
	C427.877228,153.279175 426.537659,155.460068 427.311218,159.901825 
	C428.792969,168.409866 430.046326,176.958145 431.354218,185.495895 
	C433.642334,200.432434 435.962677,215.364609 438.115997,230.320724 
	C438.530060,233.196411 439.685028,234.080215 442.408569,233.373947 
	C444.014221,232.957581 445.692657,232.828339 447.309509,232.447449 
	C449.514374,231.928085 450.820526,230.707123 450.482544,228.186020 
	C449.974670,224.397675 449.550323,220.597702 449.125732,216.798721 
	C447.371521,201.103973 445.638916,185.406784 443.875916,169.713028 
	C443.609344,167.340378 444.326019,165.937698 446.924835,165.581879 
	C450.710999,165.063477 454.452759,164.228577 458.232941,163.657455 
	C464.230408,162.751358 464.687866,163.219452 465.231567,169.257751 
	C466.841553,187.138351 468.478241,205.016693 470.173645,222.889374 
	C470.758057,229.049896 471.030273,228.941376 477.154907,227.895676 
	C481.073364,227.226669 480.785187,224.707962 480.763489,222.020279 
	C480.628967,205.371918 480.227448,188.724457 478.730194,172.143295 
	C478.275421,167.107193 479.989197,165.055847 484.770721,164.875946 
	C487.761597,164.763428 490.761932,164.607361 493.729889,164.242096 
	C499.983185,163.472534 500.466675,163.689224 500.299377,169.968475 
	C499.837585,187.302124 501.117859,204.595840 501.285126,221.912643 
	C501.312439,224.743576 501.636505,226.663925 505.264832,226.692307 
	C517.075500,226.784744 528.913147,226.019730 540.688721,227.635117 
	C543.954895,228.083160 545.472290,226.622086 545.784485,223.185745 
	C546.942261,210.440903 548.372620,197.721085 549.633667,184.985214 
	C550.632751,174.894333 551.479919,164.788315 552.498657,154.699509 
	C553.101440,148.729721 552.424133,147.640091 546.672607,146.593185 
	C545.532288,146.385605 544.352905,146.399521 543.193787,146.287430 
	C523.096863,144.344345 502.969543,144.419266 481.888855,145.409485 
M514.818542,821.616638 
	C514.095825,818.596680 516.503479,813.641785 510.889984,813.488037 
	C498.748199,813.155518 486.591278,813.419800 474.473022,812.280334 
	C471.730621,812.022461 470.592255,813.681396 470.381134,816.202820 
	C469.687622,824.485596 468.988647,832.767883 468.287994,841.050049 
	C467.027527,855.949829 465.880432,870.860535 464.451385,885.744080 
	C463.773499,892.804443 464.591705,894.067383 471.814697,894.624084 
	C496.066193,896.493103 520.314087,896.777344 544.571472,894.655640 
	C552.516724,893.960632 553.334167,892.959045 552.474731,885.200195 
	C551.101685,872.804932 549.956543,860.384521 548.695496,847.976685 
	C547.653015,837.719971 546.674683,827.455078 545.446655,817.220337 
	C545.197754,815.145630 545.200745,812.493042 541.749390,812.212585 
	C536.494141,811.785522 535.248169,812.974121 535.466614,818.268433 
	C536.173279,835.393982 536.679443,852.527893 537.417175,869.651917 
	C537.563599,873.050415 536.257935,874.615295 533.005188,874.803711 
	C529.186157,875.024963 525.336609,875.013062 521.555603,875.516907 
	C517.767334,876.021545 516.640442,874.662109 516.543579,870.936523 
	C516.124084,854.802307 515.434082,838.675049 514.818542,821.616638 
M429.447235,864.861694 
	C428.845825,868.634155 428.214386,872.402039 427.648438,876.179810 
	C425.734833,888.952332 423.749146,886.495728 436.959290,889.534058 
	C437.120972,889.571228 437.290009,889.575073 437.453339,889.606567 
	C440.755341,890.242737 442.315063,889.036072 442.692902,885.528748 
	C445.237091,861.911743 447.941101,838.311951 450.558899,814.702759 
	C451.163605,809.249084 450.099457,808.314453 443.880280,807.315125 
	C439.178802,806.559692 438.788635,809.547119 438.236023,812.881409 
	C435.410065,829.931458 432.496887,846.966980 429.447235,864.861694 
M581.614502,839.763550 
	C580.023071,830.597107 578.290649,821.451843 576.912598,812.253418 
	C576.393799,808.790161 575.428101,807.265930 571.521729,807.902283 
	C567.706116,808.523865 564.582336,808.906372 565.304626,814.013489 
	C566.141296,819.929688 566.675964,825.888672 567.335999,831.829712 
	C569.371094,850.146606 571.394531,868.464722 573.453369,886.778931 
	C573.620239,888.263611 573.928284,890.335327 575.612122,890.303589 
	C579.731567,890.225952 584.184448,890.220825 587.638184,887.915527 
	C590.309753,886.132263 588.843445,882.577271 588.418335,879.930664 
	C586.310242,866.807373 583.947021,853.725159 581.614502,839.763550 
M567.315918,213.670898 
	C566.829163,218.124191 566.372620,222.581131 565.834900,227.028259 
	C565.695374,228.182632 565.094299,229.575256 566.257263,230.255035 
	C568.876587,231.786118 571.908752,232.439606 574.859192,232.283279 
	C577.717468,232.131866 577.566528,229.356140 577.904236,227.278610 
	C581.497437,205.173691 585.138611,183.076202 588.611816,160.952377 
	C589.775879,153.537949 589.575012,153.501251 582.187195,151.723862 
	C581.219360,151.491013 580.212830,151.407776 579.256653,151.139496 
	C575.099915,149.973221 573.664001,151.742584 573.267822,155.823364 
	C571.423706,174.817245 569.348694,193.788742 567.315918,213.670898 
M774.949585,360.498138 
	C772.365967,362.548920 768.982910,363.417603 766.531921,366.109253 
	C766.955872,367.175385 767.293274,368.273804 767.809021,369.280945 
	C771.685547,376.851807 771.760498,376.861877 779.308350,372.800751 
	C788.685120,367.755585 798.077393,362.739166 807.437073,357.662720 
	C809.442627,356.574951 811.651123,355.705688 813.016968,353.669006 
	C812.320801,350.957062 810.516785,348.918549 809.341309,346.562042 
	C807.479309,342.829132 805.351135,342.708374 801.891357,344.835388 
	C793.251282,350.147339 784.369141,355.065521 774.949585,360.498138 
z"/>
<path fill="#000000" opacity="1.000000" stroke="none" 
	d="
M501.417297,586.989624 
	C501.723907,608.810730 501.738373,630.144165 502.471619,651.452942 
	C502.784302,660.539551 504.190338,669.603699 507.190887,678.375427 
	C513.283325,696.186035 526.113831,705.422852 544.101013,708.714050 
	C550.897400,709.957642 557.696838,709.563965 564.507874,709.748352 
	C569.314087,709.878357 573.230347,711.671631 575.313721,716.406677 
	C577.126892,720.527649 576.278625,724.182434 573.644897,727.621216 
	C571.541260,730.367920 568.710083,731.395447 565.344788,731.378601 
	C558.679138,731.345276 552.013184,731.373352 545.347351,731.373901 
	C485.521149,731.379150 425.694000,731.226624 365.869904,731.584045 
	C358.220459,731.629639 351.711731,723.626343 354.861206,716.241699 
	C356.896820,711.468872 360.720123,709.657104 365.629974,709.710266 
	C373.953156,709.800354 382.220764,709.832275 390.446289,707.914062 
	C405.996399,704.287659 415.734161,694.531006 421.025055,679.884155 
	C424.560638,670.096619 426.232086,659.851990 426.587463,649.550354 
	C429.271362,571.757751 427.473328,493.938904 427.487762,416.131622 
	C427.489899,404.729034 426.569153,393.219757 423.834320,381.957977 
	C417.792633,357.078735 398.728149,341.564362 373.231842,341.165100 
	C370.066833,341.115540 366.891663,341.329681 363.736023,341.154297 
	C357.518951,340.808746 352.787628,335.780823 352.754242,329.708893 
	C352.722290,323.895355 356.694580,319.507202 363.100281,319.133545 
	C369.577698,318.755615 376.091858,318.988556 382.589935,318.987427 
	C474.578827,318.971497 566.567688,318.961121 658.556580,318.951721 
	C660.222717,318.951569 661.895508,318.890625 663.553894,319.012085 
	C670.491882,319.520233 674.099548,322.846466 675.261108,329.682220 
	C677.521606,342.985809 678.467224,356.447510 679.097595,369.876007 
	C679.964111,388.334229 680.735596,406.819397 680.320496,425.318787 
	C680.177673,431.679504 677.722351,435.476501 673.048828,436.253601 
	C668.149414,437.068268 664.336182,434.827637 662.387634,428.591675 
	C657.227844,412.078918 649.276184,397.276825 637.021729,384.963440 
	C617.704163,365.552917 593.920776,355.290009 567.170044,351.328278 
	C557.919128,349.958221 548.652344,350.119202 539.296204,351.006195 
	C517.849792,353.039490 507.471680,367.972015 504.454620,385.261871 
	C500.922943,405.501038 501.129883,426.032806 501.538086,446.522858 
	C501.853180,462.340088 502.379547,478.159973 501.488556,493.974762 
	C501.098175,500.904694 501.803314,501.863525 508.817780,501.600525 
	C530.118713,500.801910 551.445679,502.350891 572.739441,500.709106 
	C589.895386,499.386444 605.394653,494.577667 617.071106,480.990845 
	C619.263977,478.439148 621.019653,475.648712 622.638916,472.725494 
	C623.926819,470.400421 625.182739,467.998260 626.853333,465.958344 
	C629.418274,462.826385 632.939331,461.849579 636.766357,463.223236 
	C640.373962,464.518188 642.381897,467.111237 642.376404,471.188507 
	C642.333313,503.017548 642.351135,534.846680 642.339417,566.675781 
	C642.338013,570.590027 640.481140,573.623962 636.906982,574.867859 
	C633.058838,576.207092 629.273071,575.502136 626.604980,571.944092 
	C625.509460,570.483154 624.393982,568.977539 623.636719,567.331604 
	C614.365845,547.181519 597.450745,537.617432 576.592163,534.503662 
	C553.283386,531.024109 529.714539,532.605042 506.247131,532.408752 
	C502.057190,532.373657 501.443817,535.248474 501.430267,538.503418 
	C501.397644,546.335571 501.403931,554.167969 501.403107,562.000244 
	C501.402222,570.164124 501.411346,578.328064 501.417297,586.989624 
z"/>
<path fill="#000000" opacity="1.000000" stroke="none" 
	d="
M271.025848,324.031982 
	C264.963043,331.235992 264.963043,331.235992 257.461548,325.840057 
	C249.500229,320.113373 249.522522,320.131836 255.866577,312.468353 
	C293.465759,267.049347 340.178864,234.429749 395.080536,213.305786 
	C400.963409,211.042297 401.184113,211.160492 403.094971,217.074799 
	C406.794525,228.525253 406.822052,228.588913 395.865143,233.325317 
	C366.523560,246.009033 338.989990,261.711578 314.092072,281.882324 
	C298.503876,294.510895 284.908386,309.161865 271.025848,324.031982 
z"/>
<path fill="#000000" opacity="1.000000" stroke="none" 
	d="
M402.746460,825.577148 
	C402.021301,830.861938 399.038055,830.091736 395.729584,828.959534 
	C372.776581,821.104736 351.113617,810.458191 330.516724,797.782959 
	C301.494202,779.922668 276.100800,757.791382 254.981186,730.934570 
	C250.994461,725.864929 251.138351,725.751831 256.282288,721.667969 
	C265.734100,714.163879 265.837463,714.075012 272.881104,722.265564 
	C307.735962,762.796387 350.626953,791.676025 400.473846,810.517334 
	C406.663605,812.856995 406.633270,812.868591 404.650787,818.963196 
	C403.982666,821.017090 403.464661,823.119873 402.746460,825.577148 
z"/>
<path fill="#000000" opacity="1.000000" stroke="none" 
	d="
M206.024048,446.821838 
	C201.232178,469.595947 199.056290,492.250275 198.501877,515.051758 
	C198.387543,519.753906 197.137711,521.491577 192.263489,521.363037 
	C176.210281,520.939819 178.475281,523.071655 178.931396,507.816376 
	C179.823669,477.972137 184.102051,448.582733 192.615860,419.869019 
	C193.822830,415.798401 195.180038,414.508057 199.543488,416.089478 
	C212.928726,420.940552 212.946899,420.758209 209.063507,434.300934 
	C207.919525,438.290375 207.096924,442.372009 206.024048,446.821838 
z"/>
<path fill="#000000" opacity="1.000000" stroke="none" 
	d="
M730.152344,741.152710 
	C744.795471,727.365601 756.989319,711.994568 767.738403,695.487122 
	C770.501770,691.243347 773.065247,690.035156 777.080811,693.496521 
	C777.577576,693.924683 778.228638,694.168823 778.786011,694.532288 
	C790.775940,702.350342 789.449768,699.996643 781.858337,710.533691 
	C741.366333,766.737793 688.701416,806.850708 622.625366,828.735352 
	C615.495728,831.096741 615.479675,831.048462 613.595581,823.911255 
	C610.603760,812.578186 610.644653,812.692383 621.359314,808.855896 
	C662.376282,794.169495 698.683167,771.873840 730.152344,741.152710 
z"/>
<path fill="#000000" opacity="1.000000" stroke="none" 
	d="
M739.681580,310.317017 
	C706.542969,276.018433 668.069580,250.325623 624.021179,232.982101 
	C623.401489,232.738098 622.780762,232.495834 622.167725,232.235855 
	C618.546265,230.700104 612.640686,230.794846 611.829163,227.300400 
	C610.726624,222.552414 613.626221,217.362671 615.219299,212.487274 
	C616.193481,209.506027 618.786987,210.540848 620.734131,211.167175 
	C625.326355,212.644363 629.894592,214.237869 634.360901,216.058273 
	C687.628784,237.769363 733.405762,269.760376 769.620239,314.830353 
	C774.342102,320.706909 774.311096,320.743683 768.486145,325.139221 
	C759.110779,332.213867 759.146729,332.182495 751.315430,323.172058 
	C747.602295,318.899902 743.721558,314.773438 739.681580,310.317017 
z"/>
<path fill="#000000" opacity="1.000000" stroke="none" 
	d="
M869.321106,446.885956 
	C869.441589,447.807892 869.516846,448.300964 869.594666,448.793610 
	C871.703674,462.138367 873.740479,459.582214 860.372375,461.128357 
	C848.159424,462.540833 835.849792,463.101349 823.617615,464.373016 
	C819.909485,464.758514 818.522156,463.394043 817.872742,460.109100 
	C814.046997,440.755524 807.486572,422.294250 799.376038,404.364838 
	C798.181091,401.723419 798.369446,400.140015 801.136414,398.799896 
	C815.060730,392.055695 828.962830,385.263458 842.800720,378.344086 
	C846.155212,376.666748 847.700012,377.521393 849.230652,380.835358 
	C858.916199,401.805115 865.280090,423.763092 869.321106,446.885956 
M837.787354,406.848724 
	C836.856445,404.544220 835.358765,403.879486 833.050720,405.047882 
	C830.825317,406.174347 828.544983,407.196716 826.260925,408.201447 
	C823.835266,409.268402 823.119141,410.851532 824.216736,413.379608 
	C828.066528,422.247131 830.977539,431.436157 833.382874,440.790985 
	C833.681030,441.950592 834.119202,443.190369 835.393372,443.422791 
	C838.923340,444.066803 842.636292,443.600677 845.606018,442.057922 
	C848.362671,440.625824 846.929810,437.133850 846.380859,434.700684 
	C844.292847,425.445648 841.498962,416.382050 837.787354,406.848724 
z"/>
<path fill="#000000" opacity="1.000000" stroke="none" 
	d="
M820.574341,544.573242 
	C820.822205,535.135376 822.173035,526.201050 821.679138,517.201111 
	C821.501404,513.963135 822.886169,512.767578 826.088501,512.842468 
	C844.516296,513.273193 841.612915,511.005127 841.075317,527.766357 
	C839.998535,561.340027 834.003235,594.100708 823.050720,625.918091 
	C821.780151,629.609253 820.150452,630.433960 816.435181,628.858093 
	C803.563354,623.398499 803.647888,623.557190 807.616333,610.417969 
	C813.631958,590.500854 817.961731,570.226929 819.818787,549.465820 
	C819.951843,547.979065 820.292542,546.510986 820.574341,544.573242 
z"/>
<path fill="#000000" opacity="1.000000" stroke="none" 
	d="
M523.069336,212.328094 
	C515.715759,212.263077 515.702576,212.263077 515.701599,205.430099 
	C515.699768,192.971481 515.845764,180.510818 515.650818,168.055389 
	C515.585266,163.866669 517.040039,162.291107 521.171753,162.803284 
	C525.447571,163.333344 529.765320,163.521576 534.043701,164.034866 
	C536.316467,164.307541 537.984314,165.073929 537.760498,168.155487 
	C536.835144,180.894394 535.904419,193.644379 535.534973,206.406479 
	C535.391846,211.349457 533.614258,212.918488 529.032776,212.379272 
	C527.229797,212.167068 525.382263,212.333664 523.069336,212.328094 
z"/>
<path fill="#000000" opacity="1.000000" stroke="none" 
	d="
M490.456482,826.581421 
	C502.274628,826.976318 501.319031,824.891052 501.291809,837.045166 
	C501.267639,847.852966 500.988190,858.661804 501.097443,869.467407 
	C501.142944,873.971130 499.583740,875.861450 494.955566,875.401184 
	C491.328156,875.040405 487.646851,875.221252 483.989502,875.161072 
	C480.871948,875.109741 479.598907,873.614746 479.769165,870.430847 
	C480.487427,856.999878 480.997253,843.557556 481.744629,830.128357 
	C482.096863,823.799072 486.748383,826.607483 490.456482,826.581421 
z"/>
</svg>