<?xml version="1.0" encoding="UTF-8" standalone="no"?>
<!DOCTYPE svg PUBLIC "-//W3C//DTD SVG 1.1//EN" "http://www.w3.org/Graphics/SVG/1.1/DTD/svg11.dtd">

<svg xmlns="http://www.w3.org/2000/svg"
     width="1.52in" height="1.52in"
     viewBox="0 0 456 456">
  <path id="SG"
        fill="white" stroke="black" stroke-width="1"
        d="M 185.03,135.00
           C 185.03,135.00 186.27,186.00 186.27,186.00
             186.27,186.00 181.67,186.00 181.67,186.00
             179.50,173.07 174.17,162.68 165.67,154.81
             157.17,146.94 147.98,143.00 138.09,143.00
             130.46,143.00 124.41,145.04 119.95,149.12
             115.50,153.20 113.28,157.89 113.28,163.20
             113.28,166.57 114.07,169.56 115.64,172.17
             117.80,175.70 121.29,179.18 126.08,182.62
             129.60,185.09 137.72,189.47 150.45,195.75
             168.27,204.51 180.28,212.79 186.50,220.58
             192.63,228.38 195.70,237.30 195.70,247.34
             195.70,260.09 190.74,271.05 180.81,280.23
             170.89,289.41 158.30,294.00 143.03,294.00
             138.24,294.00 133.71,293.47 129.44,292.41
             125.18,291.35 119.83,289.37 113.39,286.44
             109.80,284.81 106.84,284.00 104.52,284.00
             102.57,284.00 100.50,284.82 98.33,286.47
             96.16,288.12 94.41,290.62 93.06,294.00
             93.06,294.00 88.91,294.00 88.91,294.00
             88.91,294.00 88.91,237.00 88.91,237.00
             88.91,237.00 93.06,237.00 93.06,237.00
             96.35,252.93 102.70,265.08 112.09,273.45
             121.49,281.82 131.61,286.00 142.47,286.00
             150.85,286.00 157.54,283.72 162.52,279.16
             167.49,274.59 169.98,269.27 169.98,263.20
             169.98,259.62 169.02,256.15 167.11,252.78
             165.20,249.41 162.30,246.20 158.41,243.17
             154.52,240.14 147.63,236.20 137.75,231.33
             123.91,224.53 113.95,218.75 107.88,213.98
             101.81,209.21 97.15,203.89 93.89,198.00
             90.64,192.12 89.02,185.64 89.02,178.56
             89.02,166.50 93.47,156.23 102.38,147.73
             111.29,139.25 122.52,135.00 136.08,135.00
             141.02,135.00 145.80,135.57 150.45,136.72
             153.97,137.59 158.26,139.18 163.31,141.52
             168.36,143.84 171.90,145.00 173.92,145.00
             175.87,145.00 177.41,144.43 178.53,143.28
             179.66,142.14 180.70,139.38 181.67,135.00
             181.67,135.00 185.03,135.00 185.03,135.00 Z
           M 363.69,135.00
           C 363.69,135.00 363.69,188.00 363.69,188.00
             363.69,188.00 359.53,188.00 359.53,188.00
             354.51,173.30 346.98,162.13 336.95,154.48
             326.92,146.83 315.95,143.00 304.05,143.00
             292.67,143.00 283.20,146.23 275.64,152.67
             268.08,159.11 262.72,168.09 259.58,179.62
             256.43,191.16 254.86,202.99 254.86,215.12
             254.86,229.82 256.58,242.71 260.02,253.80
             263.46,264.87 269.02,273.01 276.70,278.20
             284.38,283.40 293.49,286.00 304.05,286.00
             307.71,286.00 311.47,285.61 315.33,284.83
             319.19,284.04 323.14,282.89 327.19,281.39
             327.19,281.39 327.19,249.00 327.19,249.00
             327.19,243.18 326.77,239.41 325.95,237.70
             325.13,236.00 323.43,234.45 320.84,233.08
             318.26,231.70 315.13,231.00 311.47,231.00
             311.47,231.00 307.53,231.00 307.53,231.00
             307.53,231.00 307.53,227.00 307.53,227.00
             307.53,227.00 381.55,227.00 381.55,227.00
             381.55,227.00 381.55,231.00 381.55,231.00
             375.93,231.37 372.02,232.11 369.81,233.23
             367.60,234.36 365.90,236.23 364.70,238.86
             364.02,240.23 363.69,243.62 363.69,249.00
             363.69,249.00 363.69,281.39 363.69,281.39
             353.96,285.56 343.83,288.70 333.31,290.83
             322.79,292.94 311.88,294.00 300.58,294.00
             286.13,294.00 274.13,292.04 264.58,288.12
             255.04,284.21 246.61,279.06 239.31,272.67
             232.01,266.29 226.30,259.10 222.19,251.11
             216.95,240.81 214.33,229.28 214.33,216.52
             214.33,193.67 222.38,174.38 238.47,158.62
             254.56,142.88 274.81,135.00 299.22,135.00
             306.78,135.00 313.60,135.54 319.67,136.61
             322.96,137.15 328.30,138.69 335.67,141.22
             343.05,143.74 347.41,145.00 348.75,145.00
             350.84,145.00 352.79,144.30 354.58,142.91
             356.38,141.51 358.03,138.88 359.53,135.00
             359.53,135.00 363.69,135.00 363.69,135.00 Z" />
</svg>
